<svg aria-roledescription="er" role="graphics-document document" viewBox="0 0 687.7109375 480.5" style="max-width: 687.7109375px;" class="erDiagram" xmlns="http://www.w3.org/2000/svg" width="100%" id="mermaidSvgId"><style>#mermaidSvgId{font-family:"trebuchet ms",verdana,arial,sans-serif;font-size:16px;fill:#0a0f14;}@keyframes edge-animation-frame{from{stroke-dashoffset:0;}}@keyframes dash{to{stroke-dashoffset:0;}}#mermaidSvgId .edge-animation-slow{stroke-dasharray:9,5!important;stroke-dashoffset:900;animation:dash 50s linear infinite;stroke-linecap:round;}#mermaidSvgId .edge-animation-fast{stroke-dasharray:9,5!important;stroke-dashoffset:900;animation:dash 20s linear infinite;stroke-linecap:round;}#mermaidSvgId .error-icon{fill:#ffebee;}#mermaidSvgId .error-text{fill:#c62828;stroke:#c62828;}#mermaidSvgId .edge-thickness-normal{stroke-width:1px;}#mermaidSvgId .edge-thickness-thick{stroke-width:3.5px;}#mermaidSvgId .edge-pattern-solid{stroke-dasharray:0;}#mermaidSvgId .edge-thickness-invisible{stroke-width:0;fill:none;}#mermaidSvgId .edge-pattern-dashed{stroke-dasharray:3;}#mermaidSvgId .edge-pattern-dotted{stroke-dasharray:2;}#mermaidSvgId .marker{fill:#0a0f14;stroke:#0a0f14;}#mermaidSvgId .marker.cross{stroke:#0a0f14;}#mermaidSvgId svg{font-family:"trebuchet ms",verdana,arial,sans-serif;font-size:16px;}#mermaidSvgId p{margin:0;}#mermaidSvgId .entityBox{fill:#ffffff;stroke:#1a468b;}#mermaidSvgId .relationshipLabelBox{fill:#bbd6f2;opacity:0.7;background-color:#bbd6f2;}#mermaidSvgId .relationshipLabelBox rect{opacity:0.5;}#mermaidSvgId .labelBkg{background-color:rgba(187, 214, 242, 0.5);}#mermaidSvgId .edgeLabel .label{fill:#1a468b;font-size:14px;}#mermaidSvgId .label{font-family:"trebuchet ms",verdana,arial,sans-serif;color:#0a0f14;}#mermaidSvgId .edge-pattern-dashed{stroke-dasharray:8,8;}#mermaidSvgId .node rect,#mermaidSvgId .node circle,#mermaidSvgId .node ellipse,#mermaidSvgId .node polygon{fill:#ffffff;stroke:#1a468b;stroke-width:1px;}#mermaidSvgId .relationshipLine{stroke:#0a0f14;stroke-width:1;fill:none;}#mermaidSvgId .marker{fill:none!important;stroke:#0a0f14!important;stroke-width:1;}#mermaidSvgId :root{--mermaid-font-family:"trebuchet ms",verdana,arial,sans-serif;}</style><g><defs><marker orient="auto" markerHeight="18" markerWidth="18" refY="9" refX="0" class="marker onlyOne er" id="mermaidSvgId_er-onlyOneStart"><path d="M9,0 L9,18 M15,0 L15,18"></path></marker></defs><defs><marker orient="auto" markerHeight="18" markerWidth="18" refY="9" refX="18" class="marker onlyOne er" id="mermaidSvgId_er-onlyOneEnd"><path d="M3,0 L3,18 M9,0 L9,18"></path></marker></defs><defs><marker orient="auto" markerHeight="18" markerWidth="30" refY="9" refX="0" class="marker zeroOrOne er" id="mermaidSvgId_er-zeroOrOneStart"><circle r="6" cy="9" cx="21" fill="white"></circle><path d="M9,0 L9,18"></path></marker></defs><defs><marker orient="auto" markerHeight="18" markerWidth="30" refY="9" refX="30" class="marker zeroOrOne er" id="mermaidSvgId_er-zeroOrOneEnd"><circle r="6" cy="9" cx="9" fill="white"></circle><path d="M21,0 L21,18"></path></marker></defs><defs><marker orient="auto" markerHeight="36" markerWidth="45" refY="18" refX="18" class="marker oneOrMore er" id="mermaidSvgId_er-oneOrMoreStart"><path d="M0,18 Q 18,0 36,18 Q 18,36 0,18 M42,9 L42,27"></path></marker></defs><defs><marker orient="auto" markerHeight="36" markerWidth="45" refY="18" refX="27" class="marker oneOrMore er" id="mermaidSvgId_er-oneOrMoreEnd"><path d="M3,9 L3,27 M9,18 Q27,0 45,18 Q27,36 9,18"></path></marker></defs><defs><marker orient="auto" markerHeight="36" markerWidth="57" refY="18" refX="18" class="marker zeroOrMore er" id="mermaidSvgId_er-zeroOrMoreStart"><circle r="6" cy="18" cx="48" fill="white"></circle><path d="M0,18 Q18,0 36,18 Q18,36 0,18"></path></marker></defs><defs><marker orient="auto" markerHeight="36" markerWidth="57" refY="18" refX="39" class="marker zeroOrMore er" id="mermaidSvgId_er-zeroOrMoreEnd"><circle r="6" cy="18" cx="9" fill="white"></circle><path d="M21,18 Q39,0 57,18 Q39,36 21,18"></path></marker></defs><g class="root"><g class="clusters"></g><g class="edgePaths"><path marker-end="url(#mermaidSvgId_er-zeroOrMoreEnd)" marker-start="url(#mermaidSvgId_er-onlyOneStart)" style="undefined;" class="edge-thickness-normal edge-pattern-solid relationshipLine" id="id_entity-CONVERSATIONS-0_entity-CHAT_HISTORY-1_0" d="M343.855,152L343.855,160.417C343.855,168.833,343.855,185.667,343.855,202.5C343.855,219.333,343.855,236.167,343.855,244.583L343.855,253"></path></g><g class="edgeLabels"><g transform="translate(343.85546875, 202.5)" class="edgeLabel"><g transform="translate(-31.796875, -10.5)" class="label"><g><rect height="21" width="63.59375" y="0" x="-2" style="" class="background"></rect><text style="" y="-10.1"><tspan dy="1.1em" y="-0.1em" x="0" class="text-outer-tspan"><tspan font-weight="normal" class="text-inner-tspan" font-style="normal">contains</tspan></tspan></text></g></g></g></g><g class="nodes"><g transform="translate(343.85546875, 80)" id="entity-CONVERSATIONS-0" class="node default"><g style=""><path fill="#ffffff" stroke-width="0" stroke="none" d="M-331.2265625 -72 L331.2265625 -72 L331.2265625 72 L-331.2265625 72"></path><path fill="none" stroke-width="1.3" stroke="#1a468b" d="M-331.2265625 -72 C-159.55289463457424 -72, 12.120773230851512 -72, 331.2265625 -72 M-331.2265625 -72 C-179.8400398138873 -72, -28.453517127774603 -72, 331.2265625 -72 M331.2265625 -72 C331.2265625 -23.26571679556914, 331.2265625 25.46856640886172, 331.2265625 72 M331.2265625 -72 C331.2265625 -22.651510004038137, 331.2265625 26.696979991923726, 331.2265625 72 M331.2265625 72 C98.40606459149797 72, -134.41443331700407 72, -331.2265625 72 M331.2265625 72 C161.34692138857417 72, -8.532719722851652 72, -331.2265625 72 M-331.2265625 72 C-331.2265625 33.85554727159409, -331.2265625 -4.288905456811818, -331.2265625 -72 M-331.2265625 72 C-331.2265625 24.587398484615186, -331.2265625 -22.82520303076963, -331.2265625 -72"></path></g><g class="row-rect-odd" style=""><path fill="#ffffff" stroke-width="0" stroke="none" d="M-331.2265625 35.25 L331.2265625 35.25 L331.2265625 71 L-331.2265625 71"></path><path fill="none" stroke-width="1.3" stroke="#1a468b" d="M-331.2265625 35.25 C-157.85405654147024 35.25, 15.518449417059514 35.25, 331.2265625 35.25 M-331.2265625 35.25 C-111.62889366581194 35.25, 107.96877516837611 35.25, 331.2265625 35.25 M331.2265625 35.25 C331.2265625 46.48032861659097, 331.2265625 57.71065723318194, 331.2265625 71 M331.2265625 35.25 C331.2265625 45.361683576405945, 331.2265625 55.47336715281189, 331.2265625 71 M331.2265625 71 C128.35310487345816 71, -74.52035275308367 71, -331.2265625 71 M331.2265625 71 C198.17360560536525 71, 65.1206487107305 71, -331.2265625 71 M-331.2265625 71 C-331.2265625 57.54426187530332, -331.2265625 44.08852375060665, -331.2265625 35.25 M-331.2265625 71 C-331.2265625 59.57598365970557, -331.2265625 48.151967319411135, -331.2265625 35.25"></path></g><g class="row-rect-even" style=""><path fill="#ffffff" stroke-width="0" stroke="none" d="M-331.2265625 -36.25 L331.2265625 -36.25 L331.2265625 -0.5 L-331.2265625 -0.5"></path><path fill="none" stroke-width="1.3" stroke="#1a468b" d="M-331.2265625 -36.25 C-182.45391680272584 -36.25, -33.681271105451685 -36.25, 331.2265625 -36.25 M-331.2265625 -36.25 C-156.828526050917 -36.25, 17.569510398166017 -36.25, 331.2265625 -36.25 M331.2265625 -36.25 C331.2265625 -28.38709931163041, 331.2265625 -20.524198623260823, 331.2265625 -0.5 M331.2265625 -36.25 C331.2265625 -27.472396378361463, 331.2265625 -18.694792756722926, 331.2265625 -0.5 M331.2265625 -0.5 C116.55961879417515 -0.5, -98.1073249116497 -0.5, -331.2265625 -0.5 M331.2265625 -0.5 C103.36294790893572 -0.5, -124.50066668212855 -0.5, -331.2265625 -0.5 M-331.2265625 -0.5 C-331.2265625 -10.283236204541778, -331.2265625 -20.066472409083556, -331.2265625 -36.25 M-331.2265625 -0.5 C-331.2265625 -10.675197039264301, -331.2265625 -20.850394078528602, -331.2265625 -36.25"></path></g><g style="" transform="translate(-68.75, -62.625)" class="label name"><g><rect style="stroke: none" class="background"></rect></g><text style="" y="-10.1"><tspan dy="1.1em" y="-0.1em" x="0" class="text-outer-tspan"><tspan font-weight="normal" class="text-inner-tspan" font-style="normal">CONVERSATIONS</tspan></tspan></text></g><g style="" transform="translate(-318.7265625, -26.875)" class="label attribute-type"><g><rect style="stroke: none" class="background"></rect></g><text style="" y="-10.1"><tspan dy="1.1em" y="-0.1em" x="0" class="text-outer-tspan"><tspan font-weight="normal" class="text-inner-tspan" font-style="normal">int</tspan></tspan></text></g><g style="" transform="translate(-219.828125, -26.875)" class="label attribute-name"><g><rect style="stroke: none" class="background"></rect></g><text style="" y="-10.1"><tspan dy="1.1em" y="-0.1em" x="0" class="text-outer-tspan"><tspan font-weight="normal" class="text-inner-tspan" font-style="normal">id</tspan></tspan></text></g><g style="" transform="translate(-118.6640625, -26.875)" class="label attribute-keys"><g><rect style="stroke: none" class="background"></rect></g><text style="" y="-10.1"><tspan dy="1.1em" y="-0.1em" x="0" class="text-outer-tspan"><tspan font-weight="normal" class="text-inner-tspan" font-style="normal">PK</tspan></tspan></text></g><g style="" transform="translate(-71.9921875, -26.875)" class="label attribute-comment"><g><rect style="stroke: none" class="background"></rect></g><text style="" y="-10.1"><tspan dy="1.1em" y="-0.1em" x="0" class="text-outer-tspan"><tspan font-weight="normal" class="text-inner-tspan" font-style="normal">Unique</tspan><tspan font-weight="normal" class="text-inner-tspan" font-style="normal"> identifier</tspan><tspan font-weight="normal" class="text-inner-tspan" font-style="normal"> for</tspan><tspan font-weight="normal" class="text-inner-tspan" font-style="normal"> each</tspan><tspan font-weight="normal" class="text-inner-tspan" font-style="normal"> conversation</tspan></tspan></text></g><g style="" transform="translate(-318.7265625, 8.875)" class="label attribute-type"><g><rect style="stroke: none" class="background"></rect></g><text style="" y="-10.1"><tspan dy="1.1em" y="-0.1em" x="0" class="text-outer-tspan"><tspan font-weight="normal" class="text-inner-tspan" font-style="normal">string</tspan></tspan></text></g><g style="" transform="translate(-219.828125, 8.875)" class="label attribute-name"><g><rect style="stroke: none" class="background"></rect></g><text style="" y="-10.1"><tspan dy="1.1em" y="-0.1em" x="0" class="text-outer-tspan"><tspan font-weight="normal" class="text-inner-tspan" font-style="normal">title</tspan></tspan></text></g><g style="" transform="translate(-118.6640625, 8.875)" class="label attribute-keys"><g><rect style="stroke: none" class="background"></rect></g><text style="" y="-10.1"><tspan dy="1.1em" y="-0.1em" x="0" class="text-outer-tspan"></tspan></text></g><g style="" transform="translate(-71.9921875, 8.875)" class="label attribute-comment"><g><rect style="stroke: none" class="background"></rect></g><text style="" y="-10.1"><tspan dy="1.1em" y="-0.1em" x="0" class="text-outer-tspan"><tspan font-weight="normal" class="text-inner-tspan" font-style="normal">The</tspan><tspan font-weight="normal" class="text-inner-tspan" font-style="normal"> conversation</tspan><tspan font-weight="normal" class="text-inner-tspan" font-style="normal"> title</tspan></tspan></text></g><g style="" transform="translate(-318.7265625, 44.625)" class="label attribute-type"><g><rect style="stroke: none" class="background"></rect></g><text style="" y="-10.1"><tspan dy="1.1em" y="-0.1em" x="0" class="text-outer-tspan"><tspan font-weight="normal" class="text-inner-tspan" font-style="normal">timestamp</tspan></tspan></text></g><g style="" transform="translate(-219.828125, 44.625)" class="label attribute-name"><g><rect style="stroke: none" class="background"></rect></g><text style="" y="-10.1"><tspan dy="1.1em" y="-0.1em" x="0" class="text-outer-tspan"><tspan font-weight="normal" class="text-inner-tspan" font-style="normal">created_at</tspan></tspan></text></g><g style="" transform="translate(-118.6640625, 44.625)" class="label attribute-keys"><g><rect style="stroke: none" class="background"></rect></g><text style="" y="-10.1"><tspan dy="1.1em" y="-0.1em" x="0" class="text-outer-tspan"></tspan></text></g><g style="" transform="translate(-71.9921875, 44.625)" class="label attribute-comment"><g><rect style="stroke: none" class="background"></rect></g><text style="" y="-10.1"><tspan dy="1.1em" y="-0.1em" x="0" class="text-outer-tspan"><tspan font-weight="normal" class="text-inner-tspan" font-style="normal">Timestamp</tspan><tspan font-weight="normal" class="text-inner-tspan" font-style="normal"> marking</tspan><tspan font-weight="normal" class="text-inner-tspan" font-style="normal"> when</tspan><tspan font-weight="normal" class="text-inner-tspan" font-style="normal"> the</tspan><tspan font-weight="normal" class="text-inner-tspan" font-style="normal"> conversation</tspan><tspan font-weight="normal" class="text-inner-tspan" font-style="normal"> was</tspan><tspan font-weight="normal" class="text-inner-tspan" font-style="normal"> started</tspan></tspan></text></g><g class="divider"><path fill="none" stroke-width="1.3" stroke="#1a468b" d="M-331.2265625 -36.25 C-125.48331644293876 -36.25, 80.25992961412248 -36.25, 331.2265625 -36.25 M-331.2265625 -36.25 C-146.27142601230966 -36.25, 38.68371047538068 -36.25, 331.2265625 -36.25"></path></g><g class="divider"><path fill="none" stroke-width="1.3" stroke="#1a468b" d="M-232.328125 -36.25 C-232.328125 -11.742304225575342, -232.328125 12.765391548849315, -232.328125 72 M-232.328125 -36.25 C-232.328125 -11.616825040937403, -232.328125 13.016349918125194, -232.328125 72"></path></g><g class="divider"><path fill="none" stroke-width="1.3" stroke="#1a468b" d="M-131.1640625 -36.25 C-131.1640625 -1.9206768613357852, -131.1640625 32.40864627732843, -131.1640625 72 M-131.1640625 -36.25 C-131.1640625 5.26134458304827, -131.1640625 46.77268916609654, -131.1640625 72"></path></g><g class="divider"><path fill="none" stroke-width="1.3" stroke="#1a468b" d="M-84.4921875 -36.25 C-84.4921875 2.785511592341855, -84.4921875 41.82102318468371, -84.4921875 72 M-84.4921875 -36.25 C-84.4921875 -6.450860475556219, -84.4921875 23.348279048887562, -84.4921875 72"></path></g><g class="divider"><path fill="none" stroke-width="1.3" stroke="#1a468b" d="M-331.2265625 -0.5 C-118.3605832780645 -0.5, 94.50539594387101 -0.5, 331.2265625 -0.5 M-331.2265625 -0.5 C-173.93904606880426 -0.5, -16.65152963760852 -0.5, 331.2265625 -0.5"></path></g><g class="divider"><path fill="none" stroke-width="1.3" stroke="#1a468b" d="M-331.2265625 35.25 C-163.8325827879307 35.25, 3.5613969241385917 35.25, 331.2265625 35.25 M-331.2265625 35.25 C-174.65398051615796 35.25, -18.081398532315916 35.25, 331.2265625 35.25"></path></g><g class="divider"><path fill="none" stroke-width="1.3" stroke="#1a468b" d="M-331.2265625 -36.25 C-73.15037602567611 -36.25, 184.92581044864778 -36.25, 331.2265625 -36.25 M-331.2265625 -36.25 C-197.32381287256987 -36.25, -63.42106324513975 -36.25, 331.2265625 -36.25"></path></g></g><g transform="translate(343.85546875, 362.25)" id="entity-CHAT_HISTORY-1" class="node default"><g style=""><path fill="#ffffff" stroke-width="0" stroke="none" d="M-335.85546875 -109.25 L335.85546875 -109.25 L335.85546875 109.25 L-335.85546875 109.25"></path><path fill="none" stroke-width="1.3" stroke="#1a468b" d="M-335.85546875 -109.25 C-117.8813795634359 -109.25, 100.0927096231282 -109.25, 335.85546875 -109.25 M-335.85546875 -109.25 C-160.10937914877738 -109.25, 15.636710452445243 -109.25, 335.85546875 -109.25 M335.85546875 -109.25 C335.85546875 -33.555373246157856, 335.85546875 42.13925350768429, 335.85546875 109.25 M335.85546875 -109.25 C335.85546875 -64.65380468881938, 335.85546875 -20.05760937763874, 335.85546875 109.25 M335.85546875 109.25 C100.89415842330735 109.25, -134.0671519033853 109.25, -335.85546875 109.25 M335.85546875 109.25 C114.59042076414681 109.25, -106.67462722170637 109.25, -335.85546875 109.25 M-335.85546875 109.25 C-335.85546875 47.59373825494501, -335.85546875 -14.062523490109982, -335.85546875 -109.25 M-335.85546875 109.25 C-335.85546875 42.48555382083734, -335.85546875 -24.278892358325322, -335.85546875 -109.25"></path></g><g class="row-rect-odd" style=""><path fill="#ffffff" stroke-width="0" stroke="none" d="M-335.85546875 0 L335.85546875 0 L335.85546875 36.75 L-335.85546875 36.75"></path><path fill="none" stroke-width="1.3" stroke="#1a468b" d="M-335.85546875 0 C-133.9800946315932 0, 67.89527948681359 0, 335.85546875 0 M-335.85546875 0 C-80.01973189544822 0, 175.81600495910357 0, 335.85546875 0 M335.85546875 0 C335.85546875 14.548795435545617, 335.85546875 29.097590871091235, 335.85546875 36.75 M335.85546875 0 C335.85546875 10.04548971439073, 335.85546875 20.09097942878146, 335.85546875 36.75 M335.85546875 36.75 C147.61685410640325 36.75, -40.621760537193495 36.75, -335.85546875 36.75 M335.85546875 36.75 C133.02064907152734 36.75, -69.81417060694531 36.75, -335.85546875 36.75 M-335.85546875 36.75 C-335.85546875 23.99056039317876, -335.85546875 11.231120786357522, -335.85546875 0 M-335.85546875 36.75 C-335.85546875 26.75070974068764, -335.85546875 16.751419481375276, -335.85546875 0"></path></g><g class="row-rect-even" style=""><path fill="#ffffff" stroke-width="0" stroke="none" d="M-335.85546875 36.75 L335.85546875 36.75 L335.85546875 73.5 L-335.85546875 73.5"></path><path fill="none" stroke-width="1.3" stroke="#1a468b" d="M-335.85546875 36.75 C-123.01454993521122 36.75, 89.82636887957756 36.75, 335.85546875 36.75 M-335.85546875 36.75 C-74.90178126652319 36.75, 186.05190621695363 36.75, 335.85546875 36.75 M335.85546875 36.75 C335.85546875 46.46127264040653, 335.85546875 56.172545280813054, 335.85546875 73.5 M335.85546875 36.75 C335.85546875 45.4611968106169, 335.85546875 54.172393621233795, 335.85546875 73.5 M335.85546875 73.5 C129.719705685856 73.5, -76.41605737828797 73.5, -335.85546875 73.5 M335.85546875 73.5 C185.62891989121528 73.5, 35.40237103243055 73.5, -335.85546875 73.5 M-335.85546875 73.5 C-335.85546875 60.807105425654974, -335.85546875 48.11421085130995, -335.85546875 36.75 M-335.85546875 73.5 C-335.85546875 64.03800300905489, -335.85546875 54.576006018109794, -335.85546875 36.75"></path></g><g class="row-rect-odd" style=""><path fill="#ffffff" stroke-width="0" stroke="none" d="M-335.85546875 73.5 L335.85546875 73.5 L335.85546875 110.25 L-335.85546875 110.25"></path><path fill="none" stroke-width="1.3" stroke="#1a468b" d="M-335.85546875 73.5 C-110.61487255387775 73.5, 114.62572364224451 73.5, 335.85546875 73.5 M-335.85546875 73.5 C-167.5995851703074 73.5, 0.6562984093852151 73.5, 335.85546875 73.5 M335.85546875 73.5 C335.85546875 86.39216300645407, 335.85546875 99.28432601290814, 335.85546875 110.25 M335.85546875 73.5 C335.85546875 88.0334773745093, 335.85546875 102.5669547490186, 335.85546875 110.25 M335.85546875 110.25 C100.65990757799989 110.25, -134.53565359400022 110.25, -335.85546875 110.25 M335.85546875 110.25 C92.11926657053647 110.25, -151.61693560892707 110.25, -335.85546875 110.25 M-335.85546875 110.25 C-335.85546875 97.17707396316747, -335.85546875 84.10414792633495, -335.85546875 73.5 M-335.85546875 110.25 C-335.85546875 95.93459162978478, -335.85546875 81.61918325956955, -335.85546875 73.5"></path></g><g class="row-rect-even" style=""><path fill="#ffffff" stroke-width="0" stroke="none" d="M-335.85546875 -72.5 L335.85546875 -72.5 L335.85546875 -35.75 L-335.85546875 -35.75"></path><path fill="none" stroke-width="1.3" stroke="#1a468b" d="M-335.85546875 -72.5 C-79.64193825250891 -72.5, 176.57159224498218 -72.5, 335.85546875 -72.5 M-335.85546875 -72.5 C-149.27752171612983 -72.5, 37.30042531774035 -72.5, 335.85546875 -72.5 M335.85546875 -72.5 C335.85546875 -63.06303858425888, 335.85546875 -53.626077168517746, 335.85546875 -35.75 M335.85546875 -72.5 C335.85546875 -64.49586959061912, 335.85546875 -56.491739181238245, 335.85546875 -35.75 M335.85546875 -35.75 C164.0950788730122 -35.75, -7.665311003975603 -35.75, -335.85546875 -35.75 M335.85546875 -35.75 C167.51728724871646 -35.75, -0.8208942525670864 -35.75, -335.85546875 -35.75 M-335.85546875 -35.75 C-335.85546875 -44.03282829211183, -335.85546875 -52.31565658422365, -335.85546875 -72.5 M-335.85546875 -35.75 C-335.85546875 -43.57167779313313, -335.85546875 -51.39335558626625, -335.85546875 -72.5"></path></g><g style="" transform="translate(-61.06640625, -99.875)" class="label name"><g><rect style="stroke: none" class="background"></rect></g><text style="" y="-10.1"><tspan dy="1.1em" y="-0.1em" x="0" class="text-outer-tspan"><tspan font-weight="normal" class="text-inner-tspan" font-style="normal">CHAT_HISTORY</tspan></tspan></text></g><g style="" transform="translate(-323.35546875, -63.125)" class="label attribute-type"><g><rect style="stroke: none" class="background"></rect></g><text style="" y="-10.1"><tspan dy="1.1em" y="-0.1em" x="0" class="text-outer-tspan"><tspan font-weight="normal" class="text-inner-tspan" font-style="normal">int</tspan></tspan></text></g><g style="" transform="translate(-224.45703125, -63.125)" class="label attribute-name"><g><rect style="stroke: none" class="background"></rect></g><text style="" y="-10.1"><tspan dy="1.1em" y="-0.1em" x="0" class="text-outer-tspan"><tspan font-weight="normal" class="text-inner-tspan" font-style="normal">id</tspan></tspan></text></g><g style="" transform="translate(-87.37890625, -63.125)" class="label attribute-keys"><g><rect style="stroke: none" class="background"></rect></g><text style="" y="-10.1"><tspan dy="1.1em" y="-0.1em" x="0" class="text-outer-tspan"><tspan font-weight="normal" class="text-inner-tspan" font-style="normal">PK</tspan></tspan></text></g><g style="" transform="translate(-40.70703125, -63.125)" class="label attribute-comment"><g><rect style="stroke: none" class="background"></rect></g><text style="" y="-10.1"><tspan dy="1.1em" y="-0.1em" x="0" class="text-outer-tspan"><tspan font-weight="normal" class="text-inner-tspan" font-style="normal">Unique</tspan><tspan font-weight="normal" class="text-inner-tspan" font-style="normal"> identifier</tspan><tspan font-weight="normal" class="text-inner-tspan" font-style="normal"> for</tspan><tspan font-weight="normal" class="text-inner-tspan" font-style="normal"> each</tspan><tspan font-weight="normal" class="text-inner-tspan" font-style="normal"> chat</tspan><tspan font-weight="normal" class="text-inner-tspan" font-style="normal"> message</tspan></tspan></text></g><g style="" transform="translate(-323.35546875, -27.375)" class="label attribute-type"><g><rect style="stroke: none" class="background"></rect></g><text style="" y="-10.1"><tspan dy="1.1em" y="-0.1em" x="0" class="text-outer-tspan"><tspan font-weight="normal" class="text-inner-tspan" font-style="normal">int</tspan></tspan></text></g><g style="" transform="translate(-224.45703125, -27.375)" class="label attribute-name"><g><rect style="stroke: none" class="background"></rect></g><text style="" y="-10.1"><tspan dy="1.1em" y="-0.1em" x="0" class="text-outer-tspan"><tspan font-weight="normal" class="text-inner-tspan" font-style="normal">conversation_id</tspan></tspan></text></g><g style="" transform="translate(-87.37890625, -27.375)" class="label attribute-keys"><g><rect style="stroke: none" class="background"></rect></g><text style="" y="-10.1"><tspan dy="1.1em" y="-0.1em" x="0" class="text-outer-tspan"><tspan font-weight="normal" class="text-inner-tspan" font-style="normal">FK</tspan></tspan></text></g><g style="" transform="translate(-40.70703125, -27.375)" class="label attribute-comment"><g><rect style="stroke: none" class="background"></rect></g><text style="" y="-10.1"><tspan dy="1.1em" y="-0.1em" x="0" class="text-outer-tspan"><tspan font-weight="normal" class="text-inner-tspan" font-style="normal">Links</tspan><tspan font-weight="normal" class="text-inner-tspan" font-style="normal"> each</tspan><tspan font-weight="normal" class="text-inner-tspan" font-style="normal"> message</tspan><tspan font-weight="normal" class="text-inner-tspan" font-style="normal"> to</tspan><tspan font-weight="normal" class="text-inner-tspan" font-style="normal"> a</tspan><tspan font-weight="normal" class="text-inner-tspan" font-style="normal"> specific</tspan><tspan font-weight="normal" class="text-inner-tspan" font-style="normal"> conversation</tspan></tspan></text></g><g style="" transform="translate(-323.35546875, 9.375)" class="label attribute-type"><g><rect style="stroke: none" class="background"></rect></g><text style="" y="-10.1"><tspan dy="1.1em" y="-0.1em" x="0" class="text-outer-tspan"><tspan font-weight="normal" class="text-inner-tspan" font-style="normal">text</tspan></tspan></text></g><g style="" transform="translate(-224.45703125, 9.375)" class="label attribute-name"><g><rect style="stroke: none" class="background"></rect></g><text style="" y="-10.1"><tspan dy="1.1em" y="-0.1em" x="0" class="text-outer-tspan"><tspan font-weight="normal" class="text-inner-tspan" font-style="normal">user_input</tspan></tspan></text></g><g style="" transform="translate(-87.37890625, 9.375)" class="label attribute-keys"><g><rect style="stroke: none" class="background"></rect></g><text style="" y="-10.1"><tspan dy="1.1em" y="-0.1em" x="0" class="text-outer-tspan"></tspan></text></g><g style="" transform="translate(-40.70703125, 9.375)" class="label attribute-comment"><g><rect style="stroke: none" class="background"></rect></g><text style="" y="-10.1"><tspan dy="1.1em" y="-0.1em" x="0" class="text-outer-tspan"><tspan font-weight="normal" class="text-inner-tspan" font-style="normal">Message</tspan><tspan font-weight="normal" class="text-inner-tspan" font-style="normal"> input</tspan><tspan font-weight="normal" class="text-inner-tspan" font-style="normal"> by</tspan><tspan font-weight="normal" class="text-inner-tspan" font-style="normal"> the</tspan><tspan font-weight="normal" class="text-inner-tspan" font-style="normal"> user</tspan></tspan></text></g><g style="" transform="translate(-323.35546875, 46.125)" class="label attribute-type"><g><rect style="stroke: none" class="background"></rect></g><text style="" y="-10.1"><tspan dy="1.1em" y="-0.1em" x="0" class="text-outer-tspan"><tspan font-weight="normal" class="text-inner-tspan" font-style="normal">text</tspan></tspan></text></g><g style="" transform="translate(-224.45703125, 46.125)" class="label attribute-name"><g><rect style="stroke: none" class="background"></rect></g><text style="" y="-10.1"><tspan dy="1.1em" y="-0.1em" x="0" class="text-outer-tspan"><tspan font-weight="normal" class="text-inner-tspan" font-style="normal">ai_response</tspan></tspan></text></g><g style="" transform="translate(-87.37890625, 46.125)" class="label attribute-keys"><g><rect style="stroke: none" class="background"></rect></g><text style="" y="-10.1"><tspan dy="1.1em" y="-0.1em" x="0" class="text-outer-tspan"></tspan></text></g><g style="" transform="translate(-40.70703125, 46.125)" class="label attribute-comment"><g><rect style="stroke: none" class="background"></rect></g><text style="" y="-10.1"><tspan dy="1.1em" y="-0.1em" x="0" class="text-outer-tspan"><tspan font-weight="normal" class="text-inner-tspan" font-style="normal">TARS's</tspan><tspan font-weight="normal" class="text-inner-tspan" font-style="normal"> generated</tspan><tspan font-weight="normal" class="text-inner-tspan" font-style="normal"> response</tspan></tspan></text></g><g style="" transform="translate(-323.35546875, 82.875)" class="label attribute-type"><g><rect style="stroke: none" class="background"></rect></g><text style="" y="-10.1"><tspan dy="1.1em" y="-0.1em" x="0" class="text-outer-tspan"><tspan font-weight="normal" class="text-inner-tspan" font-style="normal">timestamp</tspan></tspan></text></g><g style="" transform="translate(-224.45703125, 82.875)" class="label attribute-name"><g><rect style="stroke: none" class="background"></rect></g><text style="" y="-10.1"><tspan dy="1.1em" y="-0.1em" x="0" class="text-outer-tspan"><tspan font-weight="normal" class="text-inner-tspan" font-style="normal">created_at</tspan></tspan></text></g><g style="" transform="translate(-87.37890625, 82.875)" class="label attribute-keys"><g><rect style="stroke: none" class="background"></rect></g><text style="" y="-10.1"><tspan dy="1.1em" y="-0.1em" x="0" class="text-outer-tspan"></tspan></text></g><g style="" transform="translate(-40.70703125, 82.875)" class="label attribute-comment"><g><rect style="stroke: none" class="background"></rect></g><text style="" y="-10.1"><tspan dy="1.1em" y="-0.1em" x="0" class="text-outer-tspan"><tspan font-weight="normal" class="text-inner-tspan" font-style="normal">Timestamp</tspan><tspan font-weight="normal" class="text-inner-tspan" font-style="normal"> marking</tspan><tspan font-weight="normal" class="text-inner-tspan" font-style="normal"> when</tspan><tspan font-weight="normal" class="text-inner-tspan" font-style="normal"> the</tspan><tspan font-weight="normal" class="text-inner-tspan" font-style="normal"> message</tspan><tspan font-weight="normal" class="text-inner-tspan" font-style="normal"> was</tspan><tspan font-weight="normal" class="text-inner-tspan" font-style="normal"> logged</tspan></tspan></text></g><g class="divider"><path fill="none" stroke-width="1.3" stroke="#1a468b" d="M-335.85546875 -72.5 C-70.28224077878946 -72.5, 195.29098719242108 -72.5, 335.85546875 -72.5 M-335.85546875 -72.5 C-163.46654242642487 -72.5, 8.922383897150269 -72.5, 335.85546875 -72.5"></path></g><g class="divider"><path fill="none" stroke-width="1.3" stroke="#1a468b" d="M-236.95703125 -72.5 C-236.95703125 -10.669539164355818, -236.95703125 51.160921671288364, -236.95703125 109.25 M-236.95703125 -72.5 C-236.95703125 -9.156347178909101, -236.95703125 54.1873056421818, -236.95703125 109.25"></path></g><g class="divider"><path fill="none" stroke-width="1.3" stroke="#1a468b" d="M-99.87890625 -72.5 C-99.87890625 -30.90846203035256, -99.87890625 10.68307593929488, -99.87890625 109.25 M-99.87890625 -72.5 C-99.87890625 -28.70312719424973, -99.87890625 15.093745611500538, -99.87890625 109.25"></path></g><g class="divider"><path fill="none" stroke-width="1.3" stroke="#1a468b" d="M-53.20703125 -72.5 C-53.20703125 -34.13518661684556, -53.20703125 4.229626766308883, -53.20703125 109.25 M-53.20703125 -72.5 C-53.20703125 -30.85828124695844, -53.20703125 10.783437506083118, -53.20703125 109.25"></path></g><g class="divider"><path fill="none" stroke-width="1.3" stroke="#1a468b" d="M-335.85546875 -36.75 C-191.63650181484792 -36.75, -47.417534879695836 -36.75, 335.85546875 -36.75 M-335.85546875 -36.75 C-194.9923534723346 -36.75, -54.1292381946692 -36.75, 335.85546875 -36.75"></path></g><g class="divider"><path fill="none" stroke-width="1.3" stroke="#1a468b" d="M-335.85546875 0 C-159.1522885438175 0, 17.550891662365018 0, 335.85546875 0 M-335.85546875 0 C-90.54636316936907 0, 154.76274241126185 0, 335.85546875 0"></path></g><g class="divider"><path fill="none" stroke-width="1.3" stroke="#1a468b" d="M-335.85546875 36.75 C-92.85288285307448 36.75, 150.14970304385105 36.75, 335.85546875 36.75 M-335.85546875 36.75 C-93.81557281661242 36.75, 148.22432311677517 36.75, 335.85546875 36.75"></path></g><g class="divider"><path fill="none" stroke-width="1.3" stroke="#1a468b" d="M-335.85546875 73.5 C-88.9756574314641 73.5, 157.9041538870718 73.5, 335.85546875 73.5 M-335.85546875 73.5 C-146.27527597799042 73.5, 43.304916794019164 73.5, 335.85546875 73.5"></path></g><g class="divider"><path fill="none" stroke-width="1.3" stroke="#1a468b" d="M-335.85546875 -72.5 C-97.64040844990416 -72.5, 140.57465185019169 -72.5, 335.85546875 -72.5 M-335.85546875 -72.5 C-84.14315030124945 -72.5, 167.5691681475011 -72.5, 335.85546875 -72.5"></path></g></g></g></g></g></svg>